<mxfile host="Electron" modified="2023-12-05T13:45:56.137Z" agent="Mozilla/5.0 (Windows NT 10.0; Win64; x64) AppleWebKit/537.36 (KHTML, like Gecko) draw.io/21.2.8 Chrome/112.0.5615.165 Electron/24.2.0 Safari/537.36" etag="GN5YFhsQ-tMQ-fnWFy78" version="21.2.8" type="device">
  <diagram name="Page-1" id="8XkBZcOpWYv3P99cvh3x">
    <mxGraphModel dx="1446" dy="809" grid="1" gridSize="10" guides="1" tooltips="1" connect="1" arrows="1" fold="1" page="1" pageScale="1" pageWidth="827" pageHeight="1169" math="0" shadow="0">
      <root>
        <mxCell id="0" />
        <mxCell id="1" parent="0" />
        <mxCell id="RaanEij07KMkgF-rg8vw-1" value="client" style="swimlane;fontStyle=1;align=center;verticalAlign=top;childLayout=stackLayout;horizontal=1;startSize=26;horizontalStack=0;resizeParent=1;resizeParentMax=0;resizeLast=0;collapsible=1;marginBottom=0;whiteSpace=wrap;html=1;" parent="1" vertex="1">
          <mxGeometry x="190" y="220" width="160" height="480" as="geometry" />
        </mxCell>
        <mxCell id="RaanEij07KMkgF-rg8vw-2" value="- mail : string&lt;br&gt;- mdp : string&lt;br&gt;- nomC : string&lt;br&gt;- prenomC : string&lt;br&gt;- adresseL : string&lt;br&gt;- ville : string&lt;br&gt;- tel : int&lt;br&gt;- adresseF : string&lt;br&gt;- panier : list&lt;br&gt;- birthdate : date" style="text;strokeColor=none;fillColor=none;align=left;verticalAlign=top;spacingLeft=4;spacingRight=4;overflow=hidden;rotatable=0;points=[[0,0.5],[1,0.5]];portConstraint=eastwest;whiteSpace=wrap;html=1;" parent="RaanEij07KMkgF-rg8vw-1" vertex="1">
          <mxGeometry y="26" width="160" height="164" as="geometry" />
        </mxCell>
        <mxCell id="RaanEij07KMkgF-rg8vw-3" value="" style="line;strokeWidth=1;fillColor=none;align=left;verticalAlign=middle;spacingTop=-1;spacingLeft=3;spacingRight=3;rotatable=0;labelPosition=right;points=[];portConstraint=eastwest;strokeColor=inherit;" parent="RaanEij07KMkgF-rg8vw-1" vertex="1">
          <mxGeometry y="190" width="160" height="8" as="geometry" />
        </mxCell>
        <mxCell id="RaanEij07KMkgF-rg8vw-4" value="+ connect(): void&lt;br&gt;+ create(): void&lt;br&gt;+ retreive(): void&lt;br&gt;+ facturer(): void&lt;br&gt;+ acheter(): void&lt;br&gt;+getnom():String&lt;br&gt;+getprenom():String&lt;br&gt;+getmdp():String&lt;br&gt;+getmail():String&lt;br&gt;+gettel():String&lt;br&gt;+getadresse():String&lt;br&gt;+getville():String&lt;br&gt;+setnom():void&lt;br&gt;+setprenom():void&lt;br&gt;+setmail():void&lt;br&gt;+setmdp():void&lt;br&gt;+settel(p):void&lt;br&gt;+setadresse():void&lt;br&gt;+setville():void" style="text;strokeColor=none;fillColor=none;align=left;verticalAlign=top;spacingLeft=4;spacingRight=4;overflow=hidden;rotatable=0;points=[[0,0.5],[1,0.5]];portConstraint=eastwest;whiteSpace=wrap;html=1;" parent="RaanEij07KMkgF-rg8vw-1" vertex="1">
          <mxGeometry y="198" width="160" height="282" as="geometry" />
        </mxCell>
        <mxCell id="RaanEij07KMkgF-rg8vw-5" value="article" style="swimlane;fontStyle=1;align=center;verticalAlign=top;childLayout=stackLayout;horizontal=1;startSize=26;horizontalStack=0;resizeParent=1;resizeParentMax=0;resizeLast=0;collapsible=1;marginBottom=0;whiteSpace=wrap;html=1;" parent="1" vertex="1">
          <mxGeometry x="390" y="240" width="160" height="370" as="geometry" />
        </mxCell>
        <mxCell id="RaanEij07KMkgF-rg8vw-6" value="- ref : string&lt;br&gt;- nom : string&lt;br&gt;- qt : int&lt;br&gt;- nature : string&lt;br&gt;- prixTTC : float&lt;br&gt;- rea : float&lt;br&gt;- varation : float&lt;br&gt;- image : float" style="text;strokeColor=none;fillColor=none;align=left;verticalAlign=top;spacingLeft=4;spacingRight=4;overflow=hidden;rotatable=0;points=[[0,0.5],[1,0.5]];portConstraint=eastwest;whiteSpace=wrap;html=1;" parent="RaanEij07KMkgF-rg8vw-5" vertex="1">
          <mxGeometry y="26" width="160" height="144" as="geometry" />
        </mxCell>
        <mxCell id="RaanEij07KMkgF-rg8vw-7" value="" style="line;strokeWidth=1;fillColor=none;align=left;verticalAlign=middle;spacingTop=-1;spacingLeft=3;spacingRight=3;rotatable=0;labelPosition=right;points=[];portConstraint=eastwest;strokeColor=inherit;" parent="RaanEij07KMkgF-rg8vw-5" vertex="1">
          <mxGeometry y="170" width="160" height="8" as="geometry" />
        </mxCell>
        <mxCell id="RaanEij07KMkgF-rg8vw-8" value="+ retreive() : void+&lt;br&gt;+setref():void&lt;br&gt;+setnom():void&lt;br&gt;+setqt():void&lt;br&gt;+setnature():void&lt;br&gt;+setprixttc():void&lt;br&gt;+getref():String&lt;br&gt;+getnom():String&lt;br&gt;+getqt():String&lt;br&gt;+getnature():String&lt;br&gt;+getprixttc():String&lt;br&gt;" style="text;strokeColor=none;fillColor=none;align=left;verticalAlign=top;spacingLeft=4;spacingRight=4;overflow=hidden;rotatable=0;points=[[0,0.5],[1,0.5]];portConstraint=eastwest;whiteSpace=wrap;html=1;" parent="RaanEij07KMkgF-rg8vw-5" vertex="1">
          <mxGeometry y="178" width="160" height="192" as="geometry" />
        </mxCell>
      </root>
    </mxGraphModel>
  </diagram>
</mxfile>
